<svg width="843" height="430" viewBox="0 0 843 430" fill="none" xmlns="http://www.w3.org/2000/svg">
<g opacity="0.2" clip-path="url(#clip0_15_2040)">
<mask id="mask0_15_2040" style="mask-type:luminance" maskUnits="userSpaceOnUse" x="0" y="0" width="843" height="430">
<path d="M0.0212402 430H842.979V0H0.0212402V430Z" fill="white"/>
</mask>
<g mask="url(#mask0_15_2040)">
<mask id="mask1_15_2040" style="mask-type:alpha" maskUnits="userSpaceOnUse" x="-75" y="-563" width="993" height="993">
<path d="M-74.2393 430H917.239V-562.617H-74.2393V430Z" fill="url(#paint0_radial_15_2040)"/>
</mask>
<g mask="url(#mask1_15_2040)">
<path d="M297.565 430H359.533V367.961H297.565V430ZM297.565 367.961H359.533V305.923H297.565V367.961ZM545.435 305.923H607.402V243.884H545.435V305.923ZM235.598 243.884H297.565V181.846H235.598V243.884ZM297.565 181.846H359.533V119.807H297.565V181.846ZM607.402 181.846H669.37V119.807H607.402V181.846ZM111.663 119.807H173.63V57.7687H111.663V119.807ZM483.467 57.7687H545.435V-4.26987H483.467V57.7687Z" fill="#5F6A9F"/>
<path d="M49.5068 430H50.982V-562.617H49.5068V430ZM111.388 430H112.863V-562.617H111.388V430ZM173.261 430H174.736V-562.617H173.261V430ZM235.136 430H236.611V-562.617H235.136V430ZM297.009 430H298.484V-562.617H297.009V430ZM358.89 430H360.365V-562.617H358.89V430ZM420.763 430H422.238V-562.617H420.763V430ZM482.636 430H484.112V-562.617H482.636V430ZM544.509 430H545.985V-562.617H544.509V430ZM606.391 430H607.866V-562.617H606.391V430ZM668.264 430H669.739V-562.617H668.264V430ZM730.137 430H731.612V-562.617H730.137V430ZM792.01 430H793.485V-562.617H792.01V430Z" fill="#5F6A9F"/>
<path d="M917.239 368.054V366.577H-74.2393V368.054H917.239ZM917.239 306.108V304.631H-74.2393V306.108H917.239ZM917.239 244.162V242.685H-74.2393V244.162H917.239ZM917.239 182.216V180.739H-74.2393V182.216H917.239ZM917.239 120.269V118.793H-74.2393V120.269H917.239ZM917.239 58.3233V56.8465H-74.2393V58.3233H917.239Z" fill="#5F6A9F"/>
</g>
</g>
</g>
<defs>
<radialGradient id="paint0_radial_15_2040" cx="0" cy="0" r="1" gradientUnits="userSpaceOnUse" gradientTransform="translate(421.5 -66.3083) rotate(-90) scale(496.308 495.739)">
<stop stop-color="#737373"/>
<stop offset="1" stop-color="#D9D9D9" stop-opacity="0"/>
</radialGradient>
<clipPath id="clip0_15_2040">
<rect width="843" height="430" fill="white" transform="matrix(1 0 0 -1 0 430)"/>
</clipPath>
</defs>
</svg>
